<svg width="1377" height="1165" viewBox="0 0 1377 1165" fill="none" xmlns="http://www.w3.org/2000/svg">
<path d="M24.686 831.17L334.477 1140.96C336.2 1142.68 337.061 1142.32 337.061 1139.88L336.811 1005.3C336.811 1004.2 337.713 1003.3 338.811 1003.3H685.894C687.55 1003.29 689.14 1002.63 690.311 1001.46L1353.35 338.462C1354.06 337.737 1354.06 336.561 1353.35 335.837L1041.73 24.253C1039.92 22.42 1039.02 22.795 1039.02 25.378V158.378C1039.02 160.573 1037.94 161.67 1035.77 161.67L691.102 161.628C689.446 161.63 687.856 162.29 686.686 163.462L339.936 510.212C338.269 511.85 338.602 512.67 340.936 512.67H1036.81C1038.28 512.67 1039.02 513.406 1039.02 514.878V645.878C1039.02 649.947 1035.67 653.295 1031.6 653.295H341.102C338.297 653.295 336.894 651.906 336.894 649.128L336.977 517.003C336.977 517 336.977 516.996 336.977 516.992C336.977 516.124 336.263 515.409 335.394 515.409C334.972 515.409 334.566 515.578 334.269 515.878L24.686 825.42C22.769 827.337 22.769 829.253 24.686 831.17Z" fill="white" stroke="#8A8A8A" stroke-width="8.33"/>
<path d="M24.686 831.17C22.769 829.253 22.769 827.337 24.686 825.42L334.269 515.878C334.566 515.578 334.972 515.409 335.394 515.409C336.263 515.409 336.977 516.124 336.977 516.992C336.977 516.996 336.977 517 336.977 517.003L336.894 649.128C336.894 651.906 338.297 653.295 341.102 653.295H1031.6C1035.67 653.295 1039.02 649.947 1039.02 645.878V514.878C1039.02 513.406 1038.28 512.67 1036.81 512.67H340.936C338.603 512.67 338.269 511.85 339.936 510.212L686.686 163.462C687.856 162.29 689.446 161.63 691.102 161.628C691.232 161.628 1035.64 161.67 1035.77 161.67C1037.94 161.67 1039.02 160.573 1039.02 158.378V25.378C1039.02 22.795 1039.92 22.42 1041.73 24.253L1353.35 335.837C1354.06 336.561 1354.06 337.737 1353.35 338.462L690.311 1001.46C689.14 1002.63 687.551 1003.29 685.894 1003.3C685.763 1003.3 338.941 1003.3 338.811 1003.3C337.715 1003.3 336.811 1004.2 336.811 1005.3C336.811 1005.39 337.061 1139.88 337.061 1139.88C337.061 1142.32 336.2 1142.68 334.477 1140.96L24.686 831.17Z" fill="white" stroke="black" stroke-width="45.83" stroke-miterlimit="2" stroke-linejoin="round"/>
</svg>
